# xmcd CD database file
#
# Track frame offsets:
#	150
#	16281
#	29893
#	39701
#	52734
#	67715
#	81905
#	96843
#	111259
#	129863
#	144369
#	159010
#	171590
#	184721
#	201236
#	217728
#	230360
#	245007
#	256654
#	270884
#	291703
#	315528
#	327778
#
# Disc length: 4544 seconds
#
# Revision: 2
# Processed by: cddbd v1.5.2PL0 Copyright (c) Steve Scherf et al.
# Submitted via: CDex 1.51
#
DISCID=3b11be17
DTITLE=Various Artist - It's Trad Man! CD1
DYEAR=2011
DGENRE=Jazz
TTITLE0=Buona Sera
TTITLE1=Stomp Off, Let's Go
TTITLE2=Royal Garden Blues
TTITLE3=You've Got The Right Key, But The Wrong Keyhole
TTITLE4=Dr Jazz
TTITLE5=Tiger Rag
TTITLE6=Dippermouth Blues
TTITLE7=Shanty in Old Shanty Town
TTITLE8=Boogler Woogle Stomp
TTITLE9=That's My Home
TTITLE10=Keeping Out Of Mischief Now
TTITLE11=Chicago Buzz
TTITLE12=Gravier Street Blues
TTITLE13=The Entertainer
TTITLE14=Over in The Gloryland
TTITLE15=Since My Best Girl Turned Me Down
TTITLE16=East Coast Trot
TTITLE17=She's Crying For Me
TTITLE18=Livery Stable Blues
TTITLE19=Magnolia's Wedding Day
TTITLE20=Panama
TTITLE21=Blue Turning Grey
TTITLE22=Heebie Jeebies
EXTD=YEAR: 2011
EXTT0=
EXTT1=
EXTT2=
EXTT3=
EXTT4=
EXTT5=
EXTT6=
EXTT7=
EXTT8=
EXTT9=
EXTT10=
EXTT11=
EXTT12=
EXTT13=
EXTT14=
EXTT15=
EXTT16=
EXTT17=
EXTT18=
EXTT19=
EXTT20=
EXTT21=
EXTT22=
PLAYORDER=
